# xmcd CD database file
#
# Track frame offsets:
#	150
#	14488
#	27026
#	45459
#	61723
#	75909
#	88776
#	99690
#	112903
#	123189
#	140793
#	154340
#	164375
#	183996
#	199786
#	211874
#
# Disc length: 3050 seconds
#
# Revision: 0
# Processed by: cddbd v1.4PL0 Copyright (c) Steve Scherf et al.
# Submitted via: CDex 1.51
#
DISCID=c90be810
DTITLE=Sarah Vaughan - Sarah
DYEAR=2000
DGENRE=Blues
TTITLE0=Summertime
TTITLE1=My Favourite Things
TTITLE2=In A Sentimental Mood
TTITLE3=Round Midnight
TTITLE4=The More I See You
TTITLE5=Hands Across The Table
TTITLE6=I Cried For You
TTITLE7=Body And Soul
TTITLE8=You Stepped Out Of A Dream
TTITLE9=When Sunny Gets Blue
TTITLE10=It Might As Well Be Spring
TTITLE11=When Your Lover Has Gone
TTITLE12=Star Eyes
TTITLE13=Stormy Weather
TTITLE14=Mean to Me
TTITLE15=Sophisticated Lady
EXTD=YEAR: 2000
EXTT0=
EXTT1=
EXTT2=
EXTT3=
EXTT4=
EXTT5=
EXTT6=
EXTT7=
EXTT8=
EXTT9=
EXTT10=
EXTT11=
EXTT12=
EXTT13=
EXTT14=
EXTT15=
PLAYORDER=
